<svg width="241" height="93" viewBox="0 0 241 93" fill="none" xmlns="http://www.w3.org/2000/svg">
<path d="M69.0433 23.5541C68.8766 23.2625 69.6683 22.2416 71.4183 20.4916C73.1891 18.7208 74.0745 17.4187 74.0745 16.5854C74.0745 15.9812 73.9703 15.6166 73.762 15.4916C73.5537 15.3458 72.9599 15.2729 71.9808 15.2729C70.5641 15.2729 68.5849 15.6896 66.0433 16.5229C63.9391 17.1896 60.4808 18.6791 55.6683 20.9916C50.8558 23.3041 46.7412 25.45 43.3245 27.4291C39.4704 29.6583 34.5433 32.8458 28.5433 36.9916C22.5433 41.1375 18.8349 43.9187 17.4183 45.3354C16.8974 45.8562 15.8558 48.075 14.2933 51.9916C13.8766 53.0541 13.5849 53.7833 13.4183 54.1791C13.2516 54.575 13.0641 55.1271 12.8558 55.8354C12.6474 56.5229 12.512 56.9604 12.4495 57.1479C12.4079 57.3146 12.4079 57.6375 12.4495 58.1166C12.4912 58.575 12.5433 58.8562 12.6058 58.9604C12.6891 59.0646 12.887 59.325 13.1995 59.7416C13.512 60.1583 13.7724 60.4604 13.9808 60.6479C14.1891 60.8146 14.5745 61.1583 15.137 61.6791C18.6162 64.8875 22.8349 66.6687 27.7933 67.0229C32.7724 67.3771 38.762 66.3354 45.762 63.8979C48.9495 62.7729 51.0224 62.1271 51.9808 61.9604C52.5849 61.8354 52.9495 61.825 53.0745 61.9291C53.2204 62.0125 53.2516 62.2937 53.1683 62.7729C53.1058 63.2104 52.8245 63.6062 52.3245 63.9604C51.8454 64.2937 50.9183 64.7312 49.5433 65.2729C41.7099 68.3771 34.6579 69.7625 28.387 69.4291C22.137 69.075 17.0537 67.0125 13.137 63.2416L10.6995 60.9291L9.41827 64.1479C6.5641 71.2312 4.54327 77.1687 3.35577 81.9604C2.16827 86.7521 2.08494 89.3458 3.10577 89.7416C3.3141 89.8041 3.49119 89.95 3.63702 90.1791C3.78285 90.4083 3.85577 90.6479 3.85577 90.8979C3.85577 91.3146 3.61619 91.5958 3.13702 91.7416C2.67869 91.9083 2.16827 91.9083 1.60577 91.7416C1.0641 91.5958 0.689103 91.3146 0.480769 90.8979C0.0641026 90.1062 -0.0817308 88.7416 0.0432692 86.8041C0.168269 84.8666 0.543269 82.7312 1.16827 80.3979C1.77244 78.1062 2.79327 74.9083 4.23077 70.8041C5.6891 66.6791 6.8766 63.5854 7.79327 61.5229C8.45994 59.8771 8.78285 58.0646 8.76202 56.0854C8.69952 54.3562 8.94952 52.8146 9.51202 51.4604C10.0954 50.1062 11.1579 48.4916 12.6995 46.6166C13.262 45.9291 13.887 44.9708 14.5745 43.7416C15.262 42.5125 15.8349 41.2937 16.2933 40.0854C17.3349 37.4396 19.3037 31.7937 22.1995 23.1479C25.1162 14.5021 26.9912 8.73122 27.8245 5.83538C28.512 3.46038 29.0641 1.92913 29.4808 1.24163C29.8974 0.554134 30.3766 0.377051 30.9183 0.710384C31.4391 1.04372 31.3454 2.49163 30.637 5.05413C29.9495 7.5958 27.9599 13.7937 24.6683 23.6479C23.1058 28.3146 21.7933 32.2937 20.7308 35.5854C19.6683 38.8562 19.1579 40.4916 19.1995 40.4916C19.2829 40.4916 20.5016 39.6271 22.8558 37.8979C29.9183 32.7104 37.6058 27.8146 45.9183 23.2104C54.2308 18.5854 60.9599 15.4708 66.1058 13.8666C68.0433 13.2625 69.7933 12.9396 71.3558 12.8979C72.9183 12.8354 74.1266 13.0333 74.9808 13.4916C75.8558 13.95 76.4391 14.575 76.7308 15.3666C77.0224 16.1583 76.8974 17.1375 76.3558 18.3041C75.8141 19.45 74.887 20.6687 73.5745 21.9604C72.5953 22.9187 71.6787 23.5541 70.8245 23.8666C69.9703 24.1583 69.3766 24.0541 69.0433 23.5541Z" fill="#AAAAAA"/>
<path d="M71.0095 56.8666C71.2178 57.3875 71.0199 57.9396 70.4158 58.5229C69.8324 59.1062 68.197 60.3458 65.5095 62.2416C62.4678 64.4083 60.1449 65.7833 58.5408 66.3666C56.9366 66.95 55.447 66.9604 54.072 66.3979C52.822 65.8979 52.1658 64.7104 52.1033 62.8354C52.0408 60.9396 52.5824 58.7833 53.7283 56.3666C54.4574 54.825 55.1866 53.5854 55.9158 52.6479C56.6658 51.6896 57.5512 51.0437 58.572 50.7104C59.6345 50.3771 60.4887 50.5646 61.1345 51.2729C61.8012 51.9604 62.0408 52.7729 61.8533 53.7104C61.6658 54.7104 60.9679 55.8666 59.7595 57.1791C58.5512 58.4708 57.5095 59.1166 56.6345 59.1166C55.947 59.1166 55.4991 59.2312 55.2908 59.4604C55.0824 59.6687 54.8741 60.2833 54.6658 61.3041C54.4783 62.2833 54.5929 63.0854 55.0095 63.7104C55.3429 64.1271 55.6449 64.3562 55.9158 64.3979C56.1866 64.4187 56.7595 64.3041 57.6345 64.0541C58.822 63.7208 61.1241 62.3146 64.5408 59.8354C65.8533 58.8771 66.8845 58.1479 67.6345 57.6479C68.3845 57.1271 69.0095 56.7625 69.5095 56.5541C70.0095 56.325 70.3533 56.2521 70.5408 56.3354C70.7283 56.3979 70.8845 56.575 71.0095 56.8666ZM57.6033 54.5229C56.8533 55.6062 56.6241 56.2208 56.9158 56.3666C57.1241 56.4291 57.4887 56.2208 58.0095 55.7416C58.8012 54.9916 59.197 54.3979 59.197 53.9604C59.197 53.3979 59.0095 53.2104 58.6345 53.3979C58.322 53.5437 57.9783 53.9187 57.6033 54.5229Z" fill="#AAAAAA"/>
<path d="M87.2883 53.4604C88.2466 53.1062 88.9549 53.0437 89.4133 53.2729C89.8924 53.4812 89.9966 53.9187 89.7258 54.5854C89.4341 55.3562 88.4237 55.8979 86.6945 56.2104C84.9862 56.5229 83.8299 56.3771 83.2258 55.7729C82.9549 55.5021 82.7466 55.3979 82.6008 55.4604C82.2674 55.5854 81.3404 56.6166 79.8195 58.5541C79.4237 59.075 78.6216 60.1166 77.4133 61.6791C75.6424 64.0333 74.3924 65.5646 73.6633 66.2729C72.9549 66.9604 72.2779 67.3354 71.632 67.3979C71.0279 67.4604 70.6008 67.4291 70.3508 67.3041C70.1008 67.1583 69.8924 66.8666 69.7258 66.4291C69.2466 64.9916 69.4341 62.2104 70.2883 58.0854C70.8716 55.1062 71.5799 53.5854 72.4133 53.5229C72.6216 53.5229 72.8195 53.6166 73.007 53.8041C73.2154 54.0333 73.2883 54.4812 73.2258 55.1479C73.1841 55.7937 73.0174 56.8979 72.7258 58.4604C72.5799 59.1896 72.4549 59.8041 72.3508 60.3041C72.2674 60.8041 72.1945 61.2833 72.132 61.7416C72.0695 62.1791 72.0279 62.5333 72.007 62.8041C71.9862 63.0541 71.9966 63.2729 72.0383 63.4604C72.0799 63.6271 72.132 63.7208 72.1945 63.7416C72.2779 63.7625 72.4029 63.7312 72.5695 63.6479C72.7362 63.5437 72.9133 63.3979 73.1008 63.2104C73.2883 63.0021 73.5279 62.7208 73.8195 62.3666C74.132 61.9916 74.4445 61.6062 74.757 61.2104C75.0904 60.7937 75.4862 60.2729 75.9445 59.6479C76.9654 58.2729 78.9341 55.6375 81.8508 51.7416L84.757 47.8666C85.0904 47.4291 85.3195 47.2 85.4445 47.1791C85.5904 47.1375 85.8404 47.2833 86.1945 47.6166C86.5487 47.9708 86.7049 48.3146 86.6633 48.6479C86.6424 48.9812 86.3924 49.7312 85.9133 50.8979C85.2258 52.5646 84.9862 53.5125 85.1945 53.7416C85.4445 53.9916 86.1424 53.8979 87.2883 53.4604Z" fill="#AAAAAA"/>
<path d="M114.442 56.3354C115.005 56.2729 115.4 56.4812 115.63 56.9604C115.859 57.4396 115.713 57.9916 115.192 58.6166C114.775 59.075 114.317 59.5646 113.817 60.0854C113.317 60.5854 112.473 61.3562 111.286 62.3979C110.098 63.4396 108.911 64.3771 107.723 65.2104C106.536 66.0229 105.13 66.8146 103.505 67.5854C101.88 68.3562 100.307 68.8875 98.7858 69.1791C96.5774 69.5958 94.6191 69.2625 92.9108 68.1791C91.2024 67.075 90.2441 65.5333 90.0358 63.5541C89.8274 61.4708 89.9524 59.2937 90.4108 57.0229C90.8066 55.1062 91.2962 53.7208 91.8795 52.8666C92.4628 52.0125 93.0774 51.7937 93.7233 52.2104C94.0149 52.3771 94.1608 52.7729 94.1608 53.3979C94.1608 54.0021 94.0253 54.3875 93.7545 54.5541C93.4628 54.7416 93.1295 56.0958 92.7545 58.6166C92.5045 60.2208 92.3795 61.3562 92.3795 62.0229C92.4003 62.6687 92.567 63.3666 92.8795 64.1166C93.4628 65.5333 94.5983 66.325 96.2858 66.4916C97.9941 66.6375 99.7753 66.3354 101.63 65.5854C103.505 64.8354 105.223 63.8562 106.786 62.6479C107.765 61.8771 108.859 60.95 110.067 59.8666C111.296 58.7625 112.255 57.9083 112.942 57.3041C113.65 56.7 114.15 56.3771 114.442 56.3354ZM95.4108 48.3979C95.1816 48.6271 94.8899 48.7416 94.5358 48.7416C94.1816 48.7416 93.8795 48.6271 93.6295 48.3979C93.4003 48.1479 93.2858 47.8458 93.2858 47.4916C93.2858 47.1375 93.4003 46.8458 93.6295 46.6166C93.8795 46.3666 94.1816 46.2416 94.5358 46.2416C94.8899 46.2416 95.1816 46.3666 95.4108 46.6166C95.6608 46.8458 95.7858 47.1375 95.7858 47.4916C95.7858 47.8458 95.6608 48.1479 95.4108 48.3979Z" fill="#AAAAAA"/>
<path d="M140.002 56.9604C140.294 56.8354 140.575 56.8771 140.846 57.0854C141.137 57.2937 141.294 57.6062 141.315 58.0229C141.356 58.4187 141.19 58.8875 140.815 59.4291C140.252 60.1791 139.169 61.2104 137.565 62.5229C135.981 63.8354 134.908 64.6166 134.346 64.8666C132.137 65.7833 130.19 65.825 128.502 64.9916C127.731 64.6166 127.065 63.9083 126.502 62.8666C125.96 61.825 125.575 60.8875 125.346 60.0541C125.117 59.2 124.981 58.7729 124.94 58.7729C124.585 58.7729 123.971 59.2312 123.096 60.1479C122.221 61.0646 121.429 62.075 120.721 63.1791C118.825 66.1791 117.304 67.7833 116.158 67.9916C115.596 68.0958 115.2 67.825 114.971 67.1791C114.825 66.825 115.023 64.8979 115.565 61.3979C116.106 57.8979 116.648 55.0333 117.19 52.8041C117.44 51.8666 117.794 51.2104 118.252 50.8354C118.71 50.4604 119.148 50.4708 119.565 50.8666C119.856 51.1583 119.69 53.0541 119.065 56.5541C118.419 60.0958 118.096 61.9396 118.096 62.0854C118.096 62.1687 118.283 61.9812 118.658 61.5229C118.908 61.2312 119.2 60.8562 119.533 60.3979C120.45 59.1479 121.554 58.075 122.846 57.1791C124.158 56.2625 125.179 55.8562 125.908 55.9604C126.367 56.0229 126.71 56.2312 126.94 56.5854C127.169 56.9396 127.419 57.6687 127.69 58.7729C128.398 61.6062 129.7 63.0229 131.596 63.0229C132.346 63.0229 133.2 62.7208 134.158 62.1166C135.117 61.5125 135.96 60.8562 136.69 60.1479C137.419 59.4187 138.106 58.7208 138.752 58.0541C139.419 57.3875 139.835 57.0229 140.002 56.9604Z" fill="#AAAAAA"/>
<path d="M207.653 71.3354C207.403 71.4396 206.31 71.5854 204.372 71.7729C202.455 71.9396 199.716 72.3562 196.153 73.0229C192.591 73.6687 188.882 74.5958 185.028 75.8041C180.382 77.2625 176.132 79.1583 172.278 81.4916C168.445 83.8458 165.164 86.5021 162.435 89.4604C161.039 91.0021 160.122 91.9187 159.685 92.2104C159.268 92.5229 158.841 92.5333 158.403 92.2416C158.112 92.0541 157.955 91.8458 157.935 91.6166C157.935 91.3875 158.039 91.0021 158.247 90.4604C159.06 88.4396 160.799 84.3562 163.466 78.2104C169.299 64.5437 173.216 55.1062 175.216 49.8979C177.237 44.6896 179.237 38.7729 181.216 32.1479C182.841 26.6896 183.601 23.8562 183.497 23.6479C183.455 23.5437 183.268 23.7416 182.935 24.2416C182.914 24.2625 182.893 24.2833 182.872 24.3041C182.435 24.9291 181.955 25.1896 181.435 25.0854C180.935 24.9812 180.685 24.5646 180.685 23.8354C180.685 23.5646 180.893 23.0021 181.31 22.1479C181.747 21.2729 182.268 20.3666 182.872 19.4291C184.351 16.9708 185.414 14.8771 186.06 13.1479C186.789 11.2937 187.435 10.3666 187.997 10.3666C188.56 10.3666 188.945 10.5333 189.153 10.8666C189.445 11.325 188.424 15.7312 186.091 24.0854C183.778 32.4187 181.58 39.575 179.497 45.5541C177.851 50.2625 175.726 55.6687 173.122 61.7729C166.851 76.6687 163.716 84.1896 163.716 84.3354C163.716 84.3771 163.872 84.2937 164.185 84.0854C164.497 83.8771 164.935 83.5646 165.497 83.1479C166.08 82.7521 166.674 82.3146 167.278 81.8354C170.174 79.6687 174.393 77.4916 179.935 75.3041C185.497 73.1166 190.028 71.6896 193.528 71.0229C195.362 70.6687 197.33 70.3562 199.435 70.0854C201.539 69.7937 203.351 69.5646 204.872 69.3979C206.414 69.2312 207.226 69.1375 207.31 69.1166C207.83 69.0125 208.205 69.1166 208.435 69.4291C208.664 69.7208 208.695 70.0646 208.528 70.4604C208.382 70.8562 208.091 71.1479 207.653 71.3354Z" fill="#AAAAAA"/>
<path d="M217.651 59.6479C219.692 57.4396 220.911 56.6479 221.307 57.2729C221.432 57.4812 221.495 57.825 221.495 58.3041C221.495 58.7833 220.984 59.6166 219.963 60.8041C218.963 61.9916 217.859 63.0854 216.651 64.0854C215.463 65.0646 214.63 65.5541 214.151 65.5541C212.838 65.5541 211.984 64.9916 211.588 63.8666C211.192 62.7416 211.276 61.1479 211.838 59.0854C212.505 56.7521 212.265 56.4708 211.12 58.2416C210.849 58.6583 210.536 59.1791 210.182 59.8041C207.953 63.8041 206.192 66.1479 204.901 66.8354C204.276 67.1896 203.849 67.3771 203.62 67.3979C203.411 67.3979 202.963 67.2625 202.276 66.9916C201.547 66.7 201.078 66.075 200.87 65.1166C200.661 64.1375 200.661 62.5333 200.87 60.3041C201.349 54.8458 202.12 51.3354 203.182 49.7729C203.661 49.0646 204.14 48.95 204.62 49.4291C205.015 49.825 204.953 51.2833 204.432 53.8041C204.057 55.5333 203.755 57.2521 203.526 58.9604C203.297 60.6687 203.182 62.0125 203.182 62.9916C203.182 63.95 203.286 64.4812 203.495 64.5854C204.307 64.5854 206.234 61.8771 209.276 56.4604C210.651 54.0437 211.797 52.2937 212.713 51.2104C213.63 50.1062 214.442 49.5541 215.151 49.5541C215.942 49.5541 216.37 50.0333 216.432 50.9916C216.495 51.95 216.192 53.4916 215.526 55.6166C214.255 59.7833 213.765 62.0854 214.057 62.5229C214.328 62.9187 215.297 62.2104 216.963 60.3979C217.172 60.1687 217.401 59.9187 217.651 59.6479Z" fill="#AAAAAA"/>
<path d="M239.148 55.4916C239.565 55.3875 239.846 55.4916 239.992 55.8041C240.159 56.1166 240.18 56.4812 240.055 56.8979C239.95 57.3146 239.763 57.6062 239.492 57.7729C239.284 57.8979 238.961 58.0125 238.523 58.1166C238.086 58.2208 237.315 58.4604 236.211 58.8354C235.127 59.2104 233.815 59.7312 232.273 60.3979C230.002 61.3771 228.471 62.1166 227.68 62.6166C226.909 63.0958 226.221 63.7625 225.617 64.6166C224.638 65.9916 223.638 66.8979 222.617 67.3354C221.617 67.7521 220.659 67.6791 219.742 67.1166C219.159 66.7416 218.742 66.2833 218.492 65.7416C218.242 65.2 218.159 64.6687 218.242 64.1479C218.325 63.6062 218.409 63.1896 218.492 62.8979C218.596 62.6062 218.7 62.3666 218.805 62.1791C219.013 61.825 219.294 61.4812 219.648 61.1479C220.002 60.7937 220.325 60.5541 220.617 60.4291C221.346 60.1375 221.711 59.6271 221.711 58.8979C221.732 58.1062 222.242 56.8771 223.242 55.2104C224.263 53.5437 225.18 52.4187 225.992 51.8354C227.117 51.0229 228.034 50.5854 228.742 50.5229C229.471 50.4604 230.096 50.7312 230.617 51.3354C230.93 51.6896 231.138 51.9708 231.242 52.1791C231.367 52.3666 231.461 52.7312 231.523 53.2729C231.586 53.8146 231.502 54.4604 231.273 55.2104C231.169 55.6896 231.013 56.1896 230.805 56.7104C230.617 57.2312 230.461 57.6375 230.336 57.9291C230.211 58.2208 230.148 58.3771 230.148 58.3979C230.169 58.4187 230.836 58.2104 232.148 57.7729C233.461 57.3354 234.867 56.8666 236.367 56.3666C237.888 55.8666 238.815 55.575 239.148 55.4916ZM222.648 64.1479C223.065 63.7104 223.315 63.4187 223.398 63.2729C223.482 63.1271 223.492 63.0021 223.43 62.8979C223.367 62.7937 223.148 62.6479 222.773 62.4604C222.377 62.2312 222.075 62.1479 221.867 62.2104C221.68 62.2521 221.482 62.4708 221.273 62.8666C221.086 63.2416 220.94 63.6166 220.836 63.9916C220.752 64.3666 220.732 64.6791 220.773 64.9291C220.836 65.1791 220.961 65.3041 221.148 65.3041C221.461 65.3041 221.961 64.9187 222.648 64.1479ZM227.023 57.9291C228.002 56.2416 228.492 55.0333 228.492 54.3041C228.492 53.825 228.44 53.5541 228.336 53.4916C228.232 53.4291 227.971 53.5229 227.555 53.7729C227.013 54.1271 226.305 55.0541 225.43 56.5541C224.555 58.0541 224.117 59.1062 224.117 59.7104C224.117 60.4396 224.388 60.6687 224.93 60.3979C225.575 60.0854 226.273 59.2625 227.023 57.9291Z" fill="#AAAAAA"/>
</svg>
