<svg width="322" height="83" viewBox="0 0 322 83" fill="none" xmlns="http://www.w3.org/2000/svg">
<path d="M50.75 5.19205C51.375 6.83789 51.6562 9.7233 51.5938 13.8483C51.5521 17.9525 51.1875 21.5671 50.5 24.6921C48.9167 31.7962 47.0833 37.6816 45 42.3483C42.9167 46.9941 40.1354 51.4004 36.6562 55.5671C34.2396 58.4629 31.8021 60.7129 29.3438 62.3171C26.8854 63.9004 23.8333 65.2129 20.1875 66.2546L15.9062 67.5046L14.25 72.5046C13.2292 75.7129 12.3438 77.9421 11.5938 79.1921C10.6979 80.6296 9.70833 81.4629 8.625 81.6921C7.5625 81.9421 6.67708 81.5358 5.96875 80.4733C5.61458 79.9316 5.375 79.1296 5.25 78.0671C5.125 77.0254 5.04167 75.0671 5 72.1921L4.9375 65.2858L3.46875 64.0671C2.71875 63.4212 1.94792 62.4004 1.15625 61.0046C0.385417 59.6087 0 58.5566 0 57.8483C0 57.265 0.239583 56.9837 0.71875 57.0046C1.36458 57.0462 1.98958 57.5046 2.59375 58.3796L2.90625 58.8796C3.30208 59.6296 3.6875 60.2858 4.0625 60.8483C4.4375 61.4108 4.75 61.8275 5 62.0983C5.27083 62.3483 5.45833 62.4212 5.5625 62.3171C5.70833 62.1921 6.20833 60.5046 7.0625 57.2546C8.60417 51.3171 11.2812 44.2441 15.0938 36.0358C17.3021 31.1816 18.4062 28.2025 18.4062 27.0983C18.4062 25.8691 18.1354 23.5879 17.5938 20.2546C17.0729 16.9004 16.6042 14.4629 16.1875 12.9421C15.4167 10.2546 15.0625 8.75455 15.125 8.44205C15.2292 8.23372 15.4792 8.12955 15.875 8.12955C16.7917 8.12955 17.5 8.7858 18 10.0983C18.5208 11.4108 19.1354 14.14 19.8438 18.2858C20.4896 21.9316 20.875 23.8171 21 23.9421C21.0417 23.9837 21.1354 23.9004 21.2812 23.6921C21.4271 23.4837 21.6146 23.1921 21.8438 22.8171C22.0729 22.4421 22.3021 22.0254 22.5312 21.5671C24.0104 18.8796 25.9167 15.9212 28.25 12.6921C30.6042 9.44205 32.6562 6.94205 34.4062 5.19205C35.8646 3.71289 37.0104 2.67122 37.8438 2.06705C38.6771 1.44205 39.6146 0.962886 40.6562 0.629553C45.5938 -0.995447 48.9583 0.525386 50.75 5.19205ZM10.3438 76.0671C10.8854 74.7962 11.4688 73.1816 12.0938 71.2233C12.7396 69.265 13.0625 68.0775 13.0625 67.6608C13.0625 67.4316 12.1771 67.265 10.4062 67.1608C8.65625 67.0358 7.6875 67.1921 7.5 67.6296C7.33333 68.0462 7.26042 69.6712 7.28125 72.5046C7.30208 75.3379 7.40625 77.0879 7.59375 77.7546C8.09375 79.5462 9.01042 78.9837 10.3438 76.0671ZM15.2188 59.3483C16.4479 54.015 17.3958 48.8379 18.0625 43.8171C18.75 38.7962 18.875 36.0462 18.4375 35.5671C18.3125 35.4421 17.9375 35.9941 17.3125 37.2233C16.6875 38.4316 15.9375 40.0462 15.0625 42.0671C14.1875 44.0879 13.3125 46.2025 12.4375 48.4108C11.5833 50.5983 10.625 53.7129 9.5625 57.7546C8.66667 61.2337 8.3125 63.2754 8.5 63.8796C8.6875 64.4837 9.76042 64.7962 11.7188 64.8171H13.9688L15.2188 59.3483ZM48 24.0983C49.7083 15.5983 49.8021 9.46289 48.2812 5.69205C47.0729 2.77539 45.0417 1.7858 42.1875 2.7233C40.875 3.13997 39.4375 3.9733 37.875 5.2233C34.0625 8.20247 29.4062 14.5775 23.9062 24.3483L21.4375 28.7233L21.1562 35.9733C20.8646 43.5775 19.7188 51.4837 17.7188 59.6921C17.1771 61.9629 16.9375 63.2962 17 63.6921C17.0625 64.1921 17.4583 64.3796 18.1875 64.2546C18.5625 64.1921 19.6458 63.89 21.4375 63.3483C24.5417 62.3691 27.5938 60.5775 30.5938 57.9733C33.6146 55.3691 36.4375 52.0566 39.0625 48.0358C41.1458 44.8483 42.8958 41.3587 44.3125 37.5671C45.7292 33.7754 46.9583 29.2858 48 24.0983Z" fill="#AAAAAA"/>
<path d="M78.435 53.9108L78.6225 53.9733C78.7683 53.9941 78.8725 54.0671 78.935 54.1921C79.0183 54.2962 79.0392 54.4629 78.9975 54.6921C78.935 54.9629 78.5808 55.4108 77.935 56.0358C77.31 56.6608 76.2683 57.4837 74.81 58.5046C73.3517 59.5046 71.7162 60.4733 69.9037 61.4108C68.0287 62.39 66.4662 62.9941 65.2162 63.2233C63.9871 63.4316 62.8517 63.2962 61.81 62.8171C60.0808 62.0254 59.2163 60.64 59.2163 58.6608V57.1608L55.7475 59.6296C54.2267 60.6921 53.1433 61.3691 52.4975 61.6608C51.8725 61.9316 51.1538 62.0358 50.3413 61.9733C49.7579 61.9316 49.2892 61.765 48.935 61.4733C48.5808 61.1816 48.3621 60.8171 48.2788 60.3796C48.1954 59.9421 48.1746 59.4941 48.2163 59.0358C48.2788 58.5775 48.3829 58.1087 48.5288 57.6296C48.9454 56.2962 49.7683 55.015 50.9975 53.7858C52.2475 52.5358 53.5496 51.7129 54.9038 51.3171C55.7579 51.0671 56.4454 50.9525 56.9663 50.9733C57.4871 50.9941 58.2058 51.1712 59.1225 51.5046L61.2788 52.2858L63.685 50.4108C65.7058 48.8275 66.9246 48.4212 67.3412 49.1921C67.4246 49.3587 67.4662 49.5671 67.4662 49.8171C67.4662 50.2546 66.6954 51.2441 65.1537 52.7858C63.8204 54.0566 62.8517 55.4004 62.2475 56.8171C61.6433 58.2129 61.6017 59.2233 62.1225 59.8483C62.8725 60.7858 64.2267 60.9316 66.185 60.2858C68.1642 59.64 71.0704 58.0879 74.9037 55.6296C75.5496 55.2129 76.1433 54.8587 76.685 54.5671C77.2475 54.2754 77.6642 54.0879 77.935 54.0046C78.2267 53.9004 78.3933 53.8691 78.435 53.9108ZM58.4975 54.3171C58.7267 53.9421 58.4871 53.6921 57.7788 53.5671C56.7996 53.3796 55.8725 53.515 54.9975 53.9733C53.7892 54.6191 52.6329 55.6816 51.5288 57.1608C50.5496 58.4733 50.2475 59.2754 50.6225 59.5671C50.685 59.6087 50.7788 59.6296 50.9038 59.6296C51.2371 59.6296 52.5183 58.8171 54.7475 57.1921C55.6433 56.5879 56.4663 55.9941 57.2163 55.4108C57.9871 54.8275 58.4142 54.4629 58.4975 54.3171Z" fill="#AAAAAA"/>
<path d="M94.87 33.4733C102.287 32.4525 108.36 32.14 113.089 32.5358C117.839 32.9108 120.214 33.9212 120.214 35.5671C120.214 35.9629 120.11 36.2337 119.901 36.3796C119.714 36.5046 119.391 36.5254 118.933 36.4421C118.474 36.3379 117.839 36.1087 117.026 35.7546C116.297 35.4212 115.37 35.2025 114.245 35.0983C113.12 34.9941 111.318 34.9525 108.839 34.9733C105.547 34.9941 101.683 35.2546 97.245 35.7546C92.8283 36.2337 90.3804 36.6712 89.9013 37.0671C89.5054 37.4004 88.0158 40.4421 85.4325 46.1921C82.8492 51.9421 81.0679 56.1608 80.0888 58.8483C78.4429 63.4108 77.1825 67.6608 76.3075 71.5983C75.4533 75.515 75.0992 78.5671 75.245 80.7546C75.3283 81.6504 75.3179 82.2233 75.2138 82.4733C75.1096 82.7233 74.8179 82.89 74.3388 82.9733C73.9221 83.0358 73.6096 82.9837 73.4013 82.8171C73.2138 82.6712 73.0575 82.3483 72.9325 81.8483C72.2658 79.1816 72.9013 74.3379 74.8388 67.3171C76.7971 60.2754 79.5575 52.8691 83.12 45.0983C84.2658 42.6191 84.8388 41.0046 84.8388 40.2546C84.8388 39.6504 85.12 39.0046 85.6825 38.3171C86.0783 37.8587 86.2242 37.6087 86.12 37.5671C86.0158 37.5046 85.3492 37.5566 84.12 37.7233C82.5783 37.9525 79.1096 38.6191 73.7138 39.7233C68.3388 40.8066 64.5054 41.6296 62.2138 42.1921C59.3388 42.8587 57.8388 42.7962 57.7138 42.0046C57.6929 41.7962 57.7346 41.5566 57.8388 41.2858C57.9846 40.89 60.2033 40.1816 64.495 39.1608C68.7658 38.1191 73.87 37.0462 79.8075 35.9421L88.0888 34.4421L93.62 23.7546C95.8283 19.4837 97.3596 16.64 98.2138 15.2233C99.0888 13.7858 99.7242 13.0671 100.12 13.0671C101.474 13.0671 101.63 15.0983 100.589 19.1608C100.047 21.2025 99.3908 23.015 98.62 24.5983C97.8492 26.1608 96.6929 28.0046 95.1513 30.1296L92.5575 33.7546L94.87 33.4733Z" fill="#AAAAAA"/>
<path d="M109.618 52.6921C110.638 52.5671 111.253 52.5462 111.461 52.6296C111.67 52.6921 111.774 52.9733 111.774 53.4733C111.774 54.1608 111.315 54.6816 110.399 55.0358C109.482 55.3691 108.326 55.4421 106.93 55.2546C105.868 55.1087 104.94 54.7337 104.149 54.1296C103.357 53.5046 102.565 52.5566 101.774 51.2858C101.503 50.8483 101.274 50.6608 101.086 50.7233C100.899 50.765 100.43 51.1504 99.68 51.8796C99.2425 52.2962 98.6175 53.1504 97.805 54.4421C97.0133 55.7129 96.2633 57.0462 95.555 58.4421C93.8258 61.9629 92.5758 63.7129 91.805 63.6921C91.5342 63.6712 91.3154 63.4525 91.1488 63.0358C91.0029 62.5775 91.4196 60.2858 92.3988 56.1608C93.4196 52.1191 93.8258 49.6296 93.6175 48.6921C93.4508 47.9421 93.5758 47.3275 93.9925 46.8483C94.43 46.3483 94.9508 46.2025 95.555 46.4108C96.0342 46.5775 96.2738 47.515 96.2738 49.2233V51.7546L98.43 49.6608C99.7842 48.3483 100.847 47.7233 101.618 47.7858C102.388 47.8275 103.17 48.5775 103.961 50.0358C104.649 51.265 105.388 52.0671 106.18 52.4421C106.993 52.8171 108.138 52.9004 109.618 52.6921Z" fill="#AAAAAA"/>
<path d="M136.49 52.5358C137.052 52.4733 137.448 52.6816 137.677 53.1608C137.907 53.64 137.761 54.1921 137.24 54.8171C136.823 55.2754 136.365 55.765 135.865 56.2858C135.365 56.7858 134.521 57.5566 133.334 58.5983C132.146 59.64 130.959 60.5775 129.771 61.4108C128.584 62.2233 127.177 63.015 125.552 63.7858C123.927 64.5566 122.355 65.0879 120.834 65.3796C118.625 65.7962 116.667 65.4629 114.959 64.3796C113.25 63.2754 112.292 61.7337 112.084 59.7546C111.875 57.6712 112 55.4941 112.459 53.2233C112.855 51.3066 113.344 49.9212 113.927 49.0671C114.511 48.2129 115.125 47.9941 115.771 48.4108C116.063 48.5775 116.209 48.9733 116.209 49.5983C116.209 50.2025 116.073 50.5879 115.802 50.7546C115.511 50.9421 115.177 52.2962 114.802 54.8171C114.552 56.4212 114.427 57.5566 114.427 58.2233C114.448 58.8691 114.615 59.5671 114.927 60.3171C115.511 61.7337 116.646 62.5254 118.334 62.6921C120.042 62.8379 121.823 62.5358 123.677 61.7858C125.552 61.0358 127.271 60.0566 128.834 58.8483C129.813 58.0775 130.907 57.1504 132.115 56.0671C133.344 54.9629 134.302 54.1087 134.99 53.5046C135.698 52.9004 136.198 52.5775 136.49 52.5358ZM117.459 44.5983C117.23 44.8275 116.938 44.9421 116.584 44.9421C116.23 44.9421 115.927 44.8275 115.677 44.5983C115.448 44.3483 115.334 44.0462 115.334 43.6921C115.334 43.3379 115.448 43.0462 115.677 42.8171C115.927 42.5671 116.23 42.4421 116.584 42.4421C116.938 42.4421 117.23 42.5671 117.459 42.8171C117.709 43.0462 117.834 43.3379 117.834 43.6921C117.834 44.0462 117.709 44.3483 117.459 44.5983Z" fill="#AAAAAA"/>
<path d="M155.206 52.5983C155.623 52.9733 155.238 53.6921 154.05 54.7546C153.363 55.3587 151.779 56.5358 149.3 58.2858C146.821 60.015 145.071 61.1191 144.05 61.5983C141.258 62.8483 139.081 62.7858 137.519 61.4108C136.435 60.4733 136.008 59.1921 136.238 57.5671C136.571 55.2546 137.373 53.0983 138.644 51.0983C140.019 48.765 141.373 47.1504 142.706 46.2546C144.04 45.3587 145.133 45.3379 145.988 46.1921C146.613 46.8171 146.748 48.0671 146.394 49.9421C146.06 51.7962 145.477 52.9421 144.644 53.3796C144.165 53.6296 143.769 53.6712 143.456 53.5046C143.144 53.3379 142.988 53.0358 142.988 52.5983C142.988 52.14 143.133 51.5983 143.425 50.9733C144.238 49.4316 144.456 48.6087 144.081 48.5046C143.727 48.3796 143.06 49.0046 142.081 50.3796L141.613 51.0671C140.008 53.5671 139.05 55.5879 138.738 57.1296C138.425 58.6504 138.8 59.5775 139.863 59.9108C140.571 60.1608 141.56 59.9837 142.831 59.3796C144.102 58.7754 146.238 57.4733 149.238 55.4733C151.508 53.9525 152.998 53.0254 153.706 52.6921C154.415 52.3379 154.915 52.3066 155.206 52.5983Z" fill="#AAAAAA"/>
<path d="M179.266 53.2546C179.412 53.5046 179.412 53.7441 179.266 53.9733C179.141 54.2025 178.756 54.515 178.11 54.9108C177.464 55.2858 176.579 55.7233 175.454 56.2233C174.329 56.7233 172.766 57.39 170.766 58.2233C166.433 60.0566 163.339 61.2337 161.485 61.7546C159.652 62.2754 157.902 62.4525 156.235 62.2858L153.829 62.0983L152.423 65.5358C151.36 68.1191 150.568 70.4108 150.048 72.4108C149.527 74.4108 149.193 76.4733 149.048 78.5983C148.839 81.2233 148.475 82.5671 147.954 82.6296C147.745 82.6712 147.475 82.5254 147.141 82.1921C146.37 81.4421 146.277 79.2962 146.86 75.7546C147.423 72.2129 148.454 68.6296 149.954 65.0046C150.975 62.4421 151.787 60.3275 152.391 58.6608C153.079 56.7858 154.006 54.8483 155.173 52.8483C156.714 50.1191 158.402 46.9941 160.235 43.4733C162.402 39.4108 164.985 34.7337 167.985 29.4421C171.131 23.9212 173.235 20.1921 174.298 18.2546C175.985 15.1712 177.391 13.9837 178.516 14.6921C179.266 15.1504 179.131 15.9421 178.11 17.0671C177.714 17.5046 176.558 19.3796 174.641 22.6921C167.537 35.2546 163.985 41.6608 163.985 41.9108C163.985 42.0775 164.964 41.2546 166.923 39.4421C169.839 36.7546 171.912 35.8171 173.141 36.6296C173.766 37.0254 174.006 37.4316 173.86 37.8483C173.735 38.265 173.266 38.515 172.454 38.5983C171.6 38.6816 170.11 39.7337 167.985 41.7546C165.881 43.7754 163.735 46.1504 161.548 48.8796C159.36 51.5879 157.745 53.9316 156.704 55.9108C156.287 56.6816 155.975 57.2962 155.766 57.7546C155.579 58.1921 155.443 58.5775 155.36 58.9108C155.277 59.2441 155.308 59.4837 155.454 59.6296C155.6 59.7546 155.798 59.8483 156.048 59.9108C156.318 59.9733 156.704 60.0046 157.204 60.0046C158.391 60.0046 160.027 59.6608 162.11 58.9733C164.214 58.265 167.235 57.0462 171.173 55.3171C174.235 54.0046 176.277 53.2233 177.298 52.9733C178.318 52.7025 178.975 52.7962 179.266 53.2546Z" fill="#AAAAAA"/>
<path d="M251.042 48.7546C253.022 48.7546 251.657 50.7858 246.949 54.8483C239.99 60.9316 234.865 65.3587 231.574 68.1296C228.282 70.8796 225.709 72.9212 223.855 74.2546C222.001 75.5879 220.011 76.8379 217.886 78.0046C214.74 79.7337 211.688 80.8171 208.73 81.2546C205.772 81.7129 203.24 81.5358 201.136 80.7233C199.032 79.9316 197.542 78.6296 196.667 76.8171C195.792 75.0046 195.324 72.7962 195.261 70.1921C195.199 67.5879 195.449 64.9316 196.011 62.2233C196.595 59.4941 197.449 56.515 198.574 53.2858C199.72 50.0566 200.917 47.0358 202.167 44.2233C203.417 41.4108 204.813 38.4837 206.355 35.4421C215.709 17.1087 224.761 7.50455 233.511 6.62955C237.511 6.23372 240.251 7.42122 241.73 10.1921C243.334 13.2129 243.188 18.3171 241.292 25.5046C240.792 27.3796 239.615 30.2441 237.761 34.0983C235.907 37.9525 234.084 41.4004 232.292 44.4421C230.522 47.4837 229.459 49.0046 229.105 49.0046C228.73 49.0046 228.365 48.7337 228.011 48.1921C227.824 47.8796 227.928 47.2546 228.324 46.3171C228.74 45.3587 229.615 43.7233 230.949 41.4108C238.678 28.0566 241.636 18.6608 239.824 13.2233C239.386 11.89 238.626 10.9212 237.542 10.3171C236.48 9.69205 235.199 9.45247 233.699 9.5983C232.22 9.7233 230.49 10.3379 228.511 11.4421C226.553 12.5254 224.542 14.0462 222.48 16.0046C220.251 18.1087 218.074 20.7129 215.949 23.8171C213.845 26.9212 211.542 30.9108 209.042 35.7858C202.397 48.6191 198.667 59.4629 197.855 68.3171C197.73 69.8379 197.865 71.3275 198.261 72.7858C198.678 74.2233 199.459 75.515 200.605 76.6608C201.772 77.8275 203.22 78.5046 204.949 78.6921C206.574 78.8796 208.292 78.7337 210.105 78.2546C211.938 77.7754 214.188 76.8796 216.855 75.5671C219.126 74.4212 221.792 72.6608 224.855 70.2858C227.917 67.9108 232.73 63.89 239.292 58.2233C242.272 55.6191 244.907 53.39 247.199 51.5358C249.511 49.6816 250.792 48.7546 251.042 48.7546Z" fill="#AAAAAA"/>
<path d="M276.102 52.8483C276.602 52.5358 277.061 52.4941 277.477 52.7233C278.019 52.9941 277.957 53.515 277.29 54.2858C277.144 54.4316 276.977 54.5879 276.79 54.7546C272.811 58.2962 269.936 60.2129 268.165 60.5046C266.998 60.7129 265.977 60.6816 265.102 60.4108C264.227 60.14 263.446 59.4316 262.759 58.2858C262.467 57.8066 262.009 56.8066 261.384 55.2858C260.759 53.765 260.446 52.9941 260.446 52.9733C260.3 52.8275 259.915 53.0671 259.29 53.6921C258.686 54.3171 257.936 55.2129 257.04 56.3796C256.144 57.5254 255.248 58.7754 254.352 60.1296C253.832 60.9421 253.311 61.64 252.79 62.2233C252.269 62.7858 251.915 63.0671 251.727 63.0671C251.248 63.0671 250.873 62.4421 250.602 61.1921C250.248 59.4212 250.54 57.015 251.477 53.9733C252.415 50.9108 254.165 46.6816 256.727 41.2858C258.269 38.0566 260.457 33.2546 263.29 26.8796C265.144 22.7129 266.405 20.0254 267.071 18.8171C267.738 17.5879 268.311 16.9733 268.79 16.9733C269.498 16.9733 270.04 17.515 270.415 18.5983C270.811 19.6608 270.905 20.9525 270.696 22.4733C270.488 23.765 270.175 25.0046 269.759 26.1921C269.342 27.3796 268.582 28.9316 267.477 30.8483C266.394 32.7441 265.425 34.3587 264.571 35.6921C263.717 37.0254 262.207 39.3587 260.04 42.6921C257.394 46.6921 255.55 50.0775 254.509 52.8483L253.102 56.7858L256.321 53.2546C257.321 52.1712 258.165 51.3379 258.852 50.7546C259.561 50.1712 260.175 49.8171 260.696 49.6921C261.238 49.5671 261.665 49.6816 261.977 50.0358C262.311 50.39 262.582 50.9837 262.79 51.8171C263.123 53.1712 263.509 54.3379 263.946 55.3171C264.405 56.2754 264.852 56.9733 265.29 57.4108C265.748 57.8483 266.155 58.1608 266.509 58.3483C266.884 58.515 267.217 58.5775 267.509 58.5358C268.092 58.4316 268.998 57.9733 270.227 57.1608C271.457 56.3275 272.696 55.4316 273.946 54.4733C275.217 53.4941 275.936 52.9525 276.102 52.8483Z" fill="#AAAAAA"/>
<path d="M294.694 51.6921C295.11 51.5879 295.392 51.6921 295.538 52.0046C295.704 52.3171 295.725 52.6816 295.6 53.0983C295.496 53.515 295.308 53.8066 295.038 53.9733C294.829 54.0983 294.506 54.2129 294.069 54.3171C293.631 54.4212 292.86 54.6608 291.756 55.0358C290.673 55.4108 289.36 55.9316 287.819 56.5983C285.548 57.5775 284.017 58.3171 283.225 58.8171C282.454 59.2962 281.767 59.9629 281.163 60.8171C280.183 62.1921 279.183 63.0983 278.163 63.5358C277.163 63.9525 276.204 63.8796 275.288 63.3171C274.704 62.9421 274.288 62.4837 274.038 61.9421C273.788 61.4004 273.704 60.8691 273.788 60.3483C273.871 59.8066 273.954 59.39 274.038 59.0983C274.142 58.8066 274.246 58.5671 274.35 58.3796C274.558 58.0254 274.84 57.6816 275.194 57.3483C275.548 56.9941 275.871 56.7546 276.163 56.6296C276.892 56.3379 277.256 55.8275 277.256 55.0983C277.277 54.3066 277.788 53.0775 278.788 51.4108C279.808 49.7441 280.725 48.6191 281.538 48.0358C282.663 47.2233 283.579 46.7858 284.288 46.7233C285.017 46.6608 285.642 46.9316 286.163 47.5358C286.475 47.89 286.683 48.1712 286.788 48.3796C286.913 48.5671 287.006 48.9316 287.069 49.4733C287.131 50.015 287.048 50.6608 286.819 51.4108C286.715 51.89 286.558 52.39 286.35 52.9108C286.163 53.4316 286.006 53.8379 285.881 54.1296C285.756 54.4212 285.694 54.5775 285.694 54.5983C285.715 54.6191 286.381 54.4108 287.694 53.9733C289.006 53.5358 290.413 53.0671 291.913 52.5671C293.433 52.0671 294.36 51.7754 294.694 51.6921ZM278.194 60.3483C278.61 59.9108 278.86 59.6191 278.944 59.4733C279.027 59.3275 279.038 59.2025 278.975 59.0983C278.913 58.9941 278.694 58.8483 278.319 58.6608C277.923 58.4316 277.621 58.3483 277.413 58.4108C277.225 58.4525 277.027 58.6712 276.819 59.0671C276.631 59.4421 276.485 59.8171 276.381 60.1921C276.298 60.5671 276.277 60.8796 276.319 61.1296C276.381 61.3796 276.506 61.5046 276.694 61.5046C277.006 61.5046 277.506 61.1191 278.194 60.3483ZM282.569 54.1296C283.548 52.4421 284.038 51.2337 284.038 50.5046C284.038 50.0254 283.985 49.7546 283.881 49.6921C283.777 49.6296 283.517 49.7233 283.1 49.9733C282.558 50.3275 281.85 51.2546 280.975 52.7546C280.1 54.2546 279.663 55.3066 279.663 55.9108C279.663 56.64 279.933 56.8691 280.475 56.5983C281.121 56.2858 281.819 55.4629 282.569 54.1296Z" fill="#AAAAAA"/>
<path d="M320.41 52.5358C320.973 52.4733 321.368 52.6816 321.598 53.1608C321.827 53.64 321.681 54.1921 321.16 54.8171C320.743 55.2754 320.285 55.765 319.785 56.2858C319.285 56.7858 318.441 57.5566 317.254 58.5983C316.066 59.64 314.879 60.5775 313.691 61.4108C312.504 62.2233 311.098 63.015 309.473 63.7858C307.848 64.5566 306.275 65.0879 304.754 65.3796C302.545 65.7962 300.587 65.4629 298.879 64.3796C297.17 63.2754 296.212 61.7337 296.004 59.7546C295.795 57.6712 295.92 55.4941 296.379 53.2233C296.775 51.3066 297.264 49.9212 297.848 49.0671C298.431 48.2129 299.045 47.9941 299.691 48.4108C299.983 48.5775 300.129 48.9733 300.129 49.5983C300.129 50.2025 299.993 50.5879 299.723 50.7546C299.431 50.9421 299.098 52.2962 298.723 54.8171C298.473 56.4212 298.348 57.5566 298.348 58.2233C298.368 58.8691 298.535 59.5671 298.848 60.3171C299.431 61.7337 300.566 62.5254 302.254 62.6921C303.962 62.8379 305.743 62.5358 307.598 61.7858C309.473 61.0358 311.191 60.0566 312.754 58.8483C313.733 58.0775 314.827 57.1504 316.035 56.0671C317.264 54.9629 318.223 54.1087 318.91 53.5046C319.618 52.9004 320.118 52.5775 320.41 52.5358ZM301.379 44.5983C301.15 44.8275 300.858 44.9421 300.504 44.9421C300.15 44.9421 299.848 44.8275 299.598 44.5983C299.368 44.3483 299.254 44.0462 299.254 43.6921C299.254 43.3379 299.368 43.0462 299.598 42.8171C299.848 42.5671 300.15 42.4421 300.504 42.4421C300.858 42.4421 301.15 42.5671 301.379 42.8171C301.629 43.0462 301.754 43.3379 301.754 43.6921C301.754 44.0462 301.629 44.3483 301.379 44.5983Z" fill="#AAAAAA"/>
</svg>
